<?xml version="1.0" encoding="iso-8859-1"?>
<!-- Uploaded to: SVG Repo, www.svgrepo.com, Generator: SVG Repo Mixer Tools -->
<!DOCTYPE svg PUBLIC "-//W3C//DTD SVG 1.1//EN" "http://www.w3.org/Graphics/SVG/1.1/DTD/svg11.dtd">
<svg fill="#000000" version="1.1" id="Capa_1" xmlns="http://www.w3.org/2000/svg" xmlns:xlink="http://www.w3.org/1999/xlink" 
	 width="800px" height="800px" viewBox="0 0 50 50" xml:space="preserve">
<g>
	<path d="M49.357,20.434c0.582-0.299,0.811-1.012,0.512-1.59c-0.225-0.436-0.68-0.673-1.139-0.639
		c-0.31-0.476-0.578-1.268-0.578-2.328c0-0.925,0.207-1.654,0.467-2.148l0.738-0.381C49.754,13.147,50,12.74,50,12.299
		c0-0.444-0.246-0.85-0.643-1.05L28.484,0.514c-0.338-0.177-0.743-0.177-1.08,0L2.355,13.395c-0.191,0.097-0.345,0.247-0.455,0.42
		C0.761,14.417,0,16.04,0,18.128c0,1.483,0.391,2.725,1.018,3.543C0.391,22.489,0,23.731,0,25.215c0,2.438,1.034,4.242,2.5,4.522
		l20.729,10.66c0.168,0.088,0.355,0.134,0.542,0.134c0.183,0,0.37-0.046,0.538-0.134l15.611-8.026
		c0.309,0.712,1.111,1.186,1.773,1.565c1.363,0.787,1.858,1.211,1.271,2.233l0.679,0.392c1.041-1.803-0.463-2.67-1.558-3.303
		c-0.827-0.478-1.329-0.822-1.469-1.246l8.741-4.494c0.58-0.299,0.81-1.011,0.511-1.59c-0.226-0.437-0.679-0.674-1.138-0.641
		c-0.311-0.475-0.578-1.269-0.578-2.325c0-0.929,0.207-1.656,0.466-2.15L49.357,20.434z M27.943,6.874l10.548,5.425l-14.72,7.569
		l-10.548-5.425L27.943,6.874z M23.771,38.02L3.434,27.563c-0.01-0.006-0.024-0.004-0.038-0.012
		c-0.074-0.033-0.158-0.048-0.242-0.066c-0.07-0.02-0.142-0.041-0.214-0.043c-0.013,0-0.029-0.01-0.044-0.01
		c-0.078-0.088-0.534-0.894-0.534-2.219c0-1.325,0.456-2.133,0.645-2.243c0.031,0,0.056-0.013,0.084-0.015l20.14,10.355
		c0.168,0.09,0.355,0.131,0.542,0.131c0.183,0,0.37-0.041,0.538-0.131l22.798-11.721c-0.084,0.427-0.139,0.885-0.139,1.375
		c0,1.113,0.238,2.091,0.639,2.803L23.771,38.02z M23.771,30.935L3.434,20.479c-0.01-0.009-0.024-0.005-0.038-0.012
		c-0.074-0.034-0.154-0.046-0.235-0.067c-0.076-0.017-0.148-0.041-0.224-0.043c-0.014-0.003-0.028-0.01-0.041-0.01
		c-0.078-0.088-0.534-0.893-0.534-2.22c0-1.325,0.456-2.129,0.645-2.241c0.031,0,0.056-0.015,0.084-0.016l20.14,10.357
		c0.168,0.088,0.355,0.131,0.542,0.131c0.183,0,0.37-0.043,0.538-0.131l22.798-11.726c-0.084,0.429-0.139,0.885-0.139,1.375
		c0,1.115,0.238,2.093,0.639,2.803L23.771,30.935z M41.418,38.076c0.432-0.748,1.084-1.182,1.458-0.966
		c0.373,0.216,0.325,0.996-0.106,1.745c-0.431,0.749-1.084,1.182-1.457,0.967C40.938,39.606,40.986,38.825,41.418,38.076z
		 M44.562,37.091c1.584,1.572,1.998,4.072,0.834,6.09l-2.266,3.922c-1.386,2.399-4.484,3.229-6.886,1.846l-0.31-0.18
		c-2.398-1.387-3.229-4.484-1.844-6.885l2.264-3.922c1.164-2.016,3.539-2.906,5.692-2.32c-0.175,0.157-0.336,0.348-0.465,0.568
		l-1.698,2.942c-0.479,0.826-0.393,1.797,0.154,2.306c-0.008,0.007-0.018,0.016-0.025,0.024l0.502,0.289
		c0.006-0.012,0.006-0.022,0.012-0.032c0.715,0.218,1.592-0.193,2.068-1.021l1.699-2.943C44.426,37.554,44.512,37.322,44.562,37.091
		z"/>
</g>
</svg>